<svg width="100" height="101" viewBox="0 0 100 101" fill="none" xmlns="http://www.w3.org/2000/svg">
<path d="M50 47.0833C63.75 34.5833 70.8333 28.1667 70.8333 20.0417C70.8333 13.7917 65.625 8.83334 59.375 8.83334C55.7917 8.83334 52.375 10.3333 50 13C47.625 10.3333 44.2083 8.83334 40.375 8.83334C34.125 8.83334 29.1667 14.0417 29.1667 20.2917C29.1667 28.1667 36.25 34.5833 50 47.0833ZM46.5833 50.5C34.0833 36.75 27.6667 29.6667 19.5417 29.6667C13.2917 29.6667 8.33333 34.875 8.33333 41.125C8.33333 44.7083 9.83333 48.125 12.5 50.5C9.83333 52.875 8.33333 56.2917 8.33333 60.125C8.33333 66.375 13.5417 71.3333 19.7917 71.3333C27.6667 71.3333 34.0833 64.25 46.5833 50.5ZM53.4583 50.5C65.9167 64.25 72.3333 71.3333 80.4583 71.3333C86.7083 71.3333 91.6667 66.125 91.6667 59.875C91.6667 56.2917 90.1667 52.875 87.5 50.5C90.1667 48.125 91.6667 44.7083 91.6667 40.875C91.6667 34.625 86.4583 29.6667 80.2083 29.6667C72.3333 29.6667 65.9167 36.75 53.4583 50.5ZM50 53.9167C36.25 66.4167 29.1667 72.8333 29.1667 80.9583C29.1667 87.2083 34.375 92.1667 40.625 92.1667C44.2083 92.1667 47.625 90.6667 50 88C52.375 90.6667 55.7917 92.1667 59.625 92.1667C65.875 92.1667 70.8333 86.9584 70.8333 80.7084C70.8333 72.8334 63.75 66.4167 50 53.9167Z" fill="#8ECAE6"/>
</svg>
